<svg width="96" height="96" viewBox="0 0 96 96" fill="none" xmlns="http://www.w3.org/2000/svg">
  <rect width="96" height="96" rx="28" fill="#F7BE5B"/>
  <path d="M30.2 43.4C26.4 36.9 29.6 29.8 35.2 30.2C39.1 30.5 41.1 35.1 42.3 38.2C45.9 36.6 50.1 36.6 53.7 38.2C54.9 35.1 56.9 30.5 60.8 30.2C66.4 29.8 69.6 36.9 65.8 43.4C70.1 47.2 72.2 53.4 70.3 59.4C68.2 66.1 60.9 70.5 48 70.5C35.1 70.5 27.8 66.1 25.7 59.4C23.8 53.4 25.9 47.2 30.2 43.4Z" stroke="#203A32" stroke-width="4" stroke-linecap="round" stroke-linejoin="round"/>
  <path d="M39 51.5H39.1M57 51.5H57.1M43 61C46.2 63.7 49.8 63.7 53 61" stroke="#203A32" stroke-width="4" stroke-linecap="round"/>
</svg>